. 
  
http://www.torrentday.com/        :     The Hottest Private Tracker On The Net!!!


               www . TorrentDay . Com 
(((((((((((((= Enjoy No RAR releases =))))))))))))))))))))


...................................NFO:....................................

.[img]http://img193.imageshack.us/img193/6088/casl.jpg[/img]

Casino Jack 2010 BDRip XVID AC3 HQ Hive-CM8



[b]Thx Hive

CM8 Doing It Right The First Time :D

Why download a touched up rip of a rip BRrip
Get the real deal BDRip
Enjoy

Source Bluray

Video: 720x400 @bitrate 1800 2pass
Audio: DTS to AC3 5.1 @448
Sample: yes included[/b]


[url]http://www.imdb.com/title/tt1194417/[/url]


General
Complete name                    : Casino.Jack.2010.BDRip.XVID.AC3.HQ.Hive-CM8.avi
Format                           : AVI
Format/Info                      : Audio Video Interleave
File size                        : 1.70 GiB
Duration                         : 1h 48mn
Overall bit rate                 : 2 257 Kbps
Writing application              : Nandub v1.0rc2
Writing library                  : Nandub build 1853/release

Video
ID                               : 0
Format                           : MPEG-4 Visual
Format profile                   : Advanced Simple@L5
Format settings, BVOP            : Yes
Format settings, QPel            : Yes
Format settings, GMC             : No warppoints
Format settings, Matrix          : Default (H.263)
Muxing mode                      : Packed bitstream
Codec ID                         : XVID
Codec ID/Hint                    : XviD
Duration                         : 1h 48mn
Bit rate                         : 1 799 Kbps
Width                            : 720 pixels
Height                           : 400 pixels
Display aspect ratio             : 16:9
Frame rate                       : 23.976 fps
Color space                      : YUV
Chroma subsampling               : 4:2:0
Bit depth                        : 8 bits
Scan type                        : Progressive
Bits/(Pixel*Frame)               : 0.261
Stream size                      : 1.36 GiB (80%)
Writing library                  : XviD 1.2.1 (UTC 2008-12-04)

Audio
ID                               : 1
Format                           : AC-3
Format/Info                      : Audio Coding 3
Mode extension                   : CM (complete main)
Codec ID                         : 2000
Duration                         : 1h 48mn
Bit rate mode                    : Constant
Bit rate                         : 448 Kbps
Channel(s)                       : 6 channels
Channel positions                : Front: L C R, Side: L R, LFE
Sampling rate                    : 48.0 KHz
Bit depth                        : 16 bits
Stream size                      : 346 MiB (20%)
Alignment                        : Split accross interleaves
Interleave, duration             : 42 ms (1.00 video frame)
Interleave, preload duration     : 500 ms



Kevin Spacey   	- Jack Abramoff
Kelly Preston 	- Pam Abramoff
Barry Pepper 	- Michael Scanlon
Rachelle Lefevre - Emily
Jon Lovitz 	- Adam Kidan
Eric Schweig 	- Chief Poncho
Yannick Bisson 	- Oscar Carillo
Maury Chaykin 	- Big Tony
Christian Campbell - Ralph Reed 



A hot shot Washington DC lobbyist and his protg go down hard 
as their schemes to peddle influence lead to corruption and murder. 




[img]http://img525.imageshack.us/img525/332/10800508.png[/img]
[img]http://img510.imageshack.us/img510/567/jajaab.png[/img]
[img]http://img156.imageshack.us/img156/2070/jjaaja.png[/img]
[img]http://img222.imageshack.us/img222/8782/jjjaaaja.png[/img]
[img]http://img258.imageshack.us/img258/8964/jjjaajaaja.png[/img]
[img]http://img683.imageshack.us/img683/4505/jjjjaaajaaja.png[/img]
[img]http://img826.imageshack.us/img826/9208/jjjjaaajajaaja.png[/img]




Greetz

iNK,LUSi,,MAGNET,CLASSiFiED,THC,LEGi0N,IMAGiNE,ViSiON,WBZ,FLAWL3SS
Rapeseed,D2U,SAFC,goldadvance,MEMORY100,KaN1vE,Unevano,Pinnz,Wayne,Mr Hive
and all P2P groups 
Great Work Guys :D